<?xml version="1.0" standalone="no"?><!DOCTYPE svg PUBLIC "-//W3C//DTD SVG 1.1//EN" "http://www.w3.org/Graphics/SVG/1.1/DTD/svg11.dtd"><svg t="1553136849980" class="icon" style="" viewBox="0 0 1024 1024" version="1.1" xmlns="http://www.w3.org/2000/svg" p-id="2881" xmlns:xlink="http://www.w3.org/1999/xlink" width="200" height="200"><defs><style type="text/css"></style></defs><path d="M 514.813 41.335 c 251.97 0 456.273 204.342 456.273 456.273 S 766.783 953.883 514.813 953.883 c -251.931 0 -456.273 -204.304 -456.273 -456.273 S 262.882 41.335 514.813 41.335 Z m 210.354 678.11 V 246.679 l -74.7548 -65.1599 l -248.771 92.981 v 23.2356 l 225.921 -76.1419 v 531.953 h 150.396 v -34.102 h -52.7907 Z m -404.484 -145.657 l 118.451 -23.698 v -60.112 L 320.682 521.153 v 52.6366 Z m 0 180.567 h 118.451 v -63.0791 l -118.451 8.59294 v 54.4862 Z m 0 -90.5534 l 118.451 -11.4444 v -59.9965 l -118.451 19.9217 v 51.5191 Z m 0 -181.724 l 118.451 -32.5993 v -62.424 l -118.451 40.0747 v 54.9486 Z m 249.889 -155.251 l -66.8939 -40.6527 l -251.854 90.8231 l -0.1156 378.629 h 33.1772 v -360.325 l 188.428 -62.0387 v 420.476 h 97.2582 V 326.829 Z m 0 0" fill="#f29539" p-id="2882"></path></svg>