<?xml version="1.0" standalone="no"?><!DOCTYPE svg PUBLIC "-//W3C//DTD SVG 1.1//EN" "http://www.w3.org/Graphics/SVG/1.1/DTD/svg11.dtd"><svg t="1553137034528" class="icon" style="" viewBox="0 0 1024 1024" version="1.1" xmlns="http://www.w3.org/2000/svg" p-id="7408" xmlns:xlink="http://www.w3.org/1999/xlink" width="200" height="200"><defs><style type="text/css"></style></defs><path d="M727.467 966.4H590.933c-14.933 0-25.6-12.8-25.6-25.6V646.4H458.667v294.4c0 14.933-12.8 25.6-25.6 25.6H296.533c-70.4 0-128-64-128-140.8V590.933H147.2c-36.267 0-66.133-17.066-78.933-49.066C57.6 516.267 59.733 475.733 96 435.2L418.133 98.133C443.733 72.533 477.867 57.6 512 57.6c36.267 0 70.4 14.933 93.867 40.533L928 437.333C966.4 477.867 968.533 518.4 955.733 544c-12.8 32-42.666 49.067-78.933 49.067h-21.333v234.666c0 76.8-55.467 138.667-128 138.667z m-108.8-53.333H729.6c46.933 0 74.667-44.8 74.667-87.467V565.333c0-14.933 12.8-25.6 25.6-25.6H876.8c14.933 0 25.6-6.4 29.867-17.066 0-2.134 8.533-21.334-19.2-49.067l-320-339.2c-29.867-32-81.067-32-110.934 0L134.4 473.6c-25.6 27.733-19.2 46.933-19.2 49.067 4.267 12.8 14.933 17.066 29.867 17.066H192c14.933 0 25.6 12.8 25.6 25.6V825.6c0 42.667 27.733 87.467 74.667 87.467h113.066V654.933c0-17.066 0-36.266 12.8-49.066 12.8-12.8 32-12.8 38.4-12.8h108.8c6.4 0 25.6 0 38.4 12.8 12.8 12.8 12.8 32 12.8 49.066v258.134z" p-id="7409"></path></svg>