<?xml version="1.0" standalone="no"?><!DOCTYPE svg PUBLIC "-//W3C//DTD SVG 1.1//EN" "http://www.w3.org/Graphics/SVG/1.1/DTD/svg11.dtd"><svg t="1553739705590" class="icon" style="" viewBox="0 0 1024 1024" version="1.1" xmlns="http://www.w3.org/2000/svg" p-id="3677" xmlns:xlink="http://www.w3.org/1999/xlink" width="200" height="200"><defs><style type="text/css"></style></defs><path d="M912.8448 753.1968a141.4784 141.4784 0 1 1-282.9504 0H441.2608a141.4784 141.4784 0 1 1-282.9504 0H64V447.7632l188.6272-218.176h94.3232V134.4H960v618.7968h-47.1552zM345.6 320H275.2L153.6 467.2v44.8h192V320z m425.7664 509.0624a75.8656 75.8656 0 1 1 75.1616-75.8592 75.52 75.52 0 0 1-75.1616 75.8592z m-471.5776 0a75.8656 75.8656 0 1 1 75.1552-75.8592 75.52 75.52 0 0 1-75.1552 75.8592z" p-id="3678"></path></svg>