<?xml version="1.0" standalone="no"?><!DOCTYPE svg PUBLIC "-//W3C//DTD SVG 1.1//EN" "http://www.w3.org/Graphics/SVG/1.1/DTD/svg11.dtd"><svg t="1553136773428" class="icon" style="" viewBox="0 0 1024 1024" version="1.1" xmlns="http://www.w3.org/2000/svg" p-id="2517" xmlns:xlink="http://www.w3.org/1999/xlink" width="200" height="200"><defs><style type="text/css"></style></defs><path d="M484.484969 625.812354H131.995905V894.004033c0 71.797772 58.198194 129.995967 129.995967 129.995967h222.493097V625.812354z m54.998293 0V1024H761.976359c71.797772 0 129.995967-58.198194 129.995967-129.995967V625.812354H539.483262z m-54.998293-54.998294V240.524308H129.995967c-71.797772 0-129.995967 58.198194-129.995967 129.995966v69.997829c0 71.797772 58.198194 129.995967 129.995967 129.995967h1.999938v0.29999h352.489064zM893.972264 240.524308H539.483262v330.289752H891.972326v-0.29999h1.999938c71.797772 0 129.995967-58.198194 129.995967-129.995967v-69.997829c0-71.797772-58.198194-129.995967-129.995967-129.995966z m-413.887159-15.79951c0.099997 0.599981 0.099997 0.899972 0.099997 0.899972h63.598027s0.099997-0.299991 0.099997-0.899972C638.980175 221.224906 907.771836 200.025564 813.074774 71.829541c-125.296113-169.494741-231.992802 1.59995-277.591388 97.696969-4.999845-6.399801-12.499612-10.799665-23.599267-10.799665-11.099656 0-18.499426 4.399863-23.599268 10.799665-45.498588-96.097019-152.195278-267.19171-277.391394-97.696969C116.096398 200.025564 385.088052 221.324903 480.085105 224.724798z" p-id="2518" fill="#1afa29"></path></svg>