<?xml version="1.0" standalone="no"?><!DOCTYPE svg PUBLIC "-//W3C//DTD SVG 1.1//EN" "http://www.w3.org/Graphics/SVG/1.1/DTD/svg11.dtd"><svg t="1553761985889" class="icon" style="" viewBox="0 0 1057 1024" version="1.1" xmlns="http://www.w3.org/2000/svg" p-id="3864" xmlns:xlink="http://www.w3.org/1999/xlink" width="206.4453125" height="200"><defs><style type="text/css"></style></defs><path d="M831.063897 399.483942c-146.04975 0-264.421129 118.136631-264.421129 263.864058 0 83.020518 38.47678 156.98925 98.539429 205.366801-77.673615 57.066876-136.342373 93.050218-136.342372 93.050218S-0.001216 638.211719-0.001216 377.48331c0-157.063445 97.608951-314.128107 283.3226-314.128107 169.987965 0 245.518441 160.652779 245.518441 160.652779S594.945107 63.355203 774.385024 63.355203c179.437485 0 280.14438 153.926579 280.14438 314.128107 0 35.828871-10.277827 72.702553-27.036159 109.667458-48.415256-53.697694-118.343404-87.666826-196.429348-87.666826z m0 37.687394c125.160826 0 226.641295 101.261533 226.641295 226.176664 0 124.904185-101.480469 226.179097-226.641295 226.179097-125.186369 0-226.66927-101.274912-226.669271-226.179097 0-124.913915 101.482902-226.176664 226.669271-226.176664z m-113.333419 263.87987h75.553585v75.386951h75.530476v-75.386951h75.557234v-75.401546h-75.557234v-75.386951h-75.530476v75.386951h-75.553585v75.401546z" fill="#D61E39" p-id="3865"></path></svg>