<?xml version="1.0" standalone="no"?><!DOCTYPE svg PUBLIC "-//W3C//DTD SVG 1.1//EN" "http://www.w3.org/Graphics/SVG/1.1/DTD/svg11.dtd"><svg t="1553832427987" class="icon" style="" viewBox="0 0 1024 1024" version="1.1" xmlns="http://www.w3.org/2000/svg" p-id="5280" xmlns:xlink="http://www.w3.org/1999/xlink" width="200" height="200"><defs><style type="text/css"></style></defs><path d="M19.185778 181.596444h983.416889v658.595556H19.185778z" fill="#FFFFFF" p-id="5281"></path><path d="M648.760889 597.696c-47.936 76.16-148.551111 99.015111-224.711111 51.029333-76.16-47.950222-98.979556-148.558222-51.022222-224.711111 47.950222-76.16 148.558222-99.015111 224.711111-51.043555 76.138667 47.964444 98.993778 148.600889 51.022222 224.725333z" fill="#E50012" p-id="5282"></path><path d="M648.760889 597.696c-47.936 76.16-148.551111 99.015111-224.711111 51.029333-76.16-47.950222-99.000889-148.558222-51.043556-224.711111-23.985778 38.08-12.536889 88.384 25.521778 112.348445 38.065778 24 88.376889 12.565333 112.362667-25.507556 24-38.08 74.304-49.507556 112.362666-25.521778 38.065778 23.985778 49.500444 74.289778 25.507556 112.362667z" fill="#0068B6" p-id="5283"></path><path d="M719.480889 265.365333l-18.624 12.522667 95.210667 141.568 18.631111-12.522667zM724.117333 351.530667l-41.329777-61.475556-18.616889 12.508445 41.351111 61.489777zM718.044444 382.656l41.344 61.482667 18.631112-12.529778-41.379556-61.482667zM797.532444 302.179556l-41.351111-61.511112-18.624 12.536889 41.344 61.496889zM810.048 320.782222l-18.609778 12.508445 41.329778 61.482666 18.616889-12.529777zM249.244444 577.6l-18.609777 12.501333L325.831111 731.676444l18.631111-12.515555zM253.895111 663.736889l-41.351111-61.468445-18.624 12.529778 41.365333 61.475556zM247.822222 694.883556l41.315556 61.496888 18.624-12.529777-41.358222-61.504zM175.836444 626.944L157.226667 639.466667l95.224889 141.582222 18.609777-12.536889zM325.831111 290.055111L230.634667 431.608889l18.609777 12.529778 95.217778-141.575111zM289.137778 265.365333L193.92 406.933333l18.624 12.522667 95.217778-141.568zM252.451556 240.668444L157.226667 382.243556l18.609777 12.529777 95.224889-141.568z" fill="#231815" p-id="5284"></path><path d="M778.019556 590.101333l-18.631112-12.501333-41.344 61.475556 18.595556 12.522666zM664.170667 719.160889l18.616889 12.515555 41.329777-61.482666-18.595555-12.508445zM814.698667 614.798222l-18.631111-12.529778-41.329778 61.468445 18.609778 12.536889zM700.856889 743.850667l18.624 12.529777 41.365333-61.496888-18.624-12.536889zM851.384889 639.466667l-18.616889-12.522667-41.329778 61.482667 18.609778 12.529777zM737.557333 768.512l18.624 12.536889 41.351111-61.504-18.631111-12.508445z" fill="#231815" p-id="5285"></path></svg>