<?xml version="1.0" standalone="no"?><!DOCTYPE svg PUBLIC "-//W3C//DTD SVG 1.1//EN" "http://www.w3.org/Graphics/SVG/1.1/DTD/svg11.dtd"><svg t="1552980494172" class="icon" style="" viewBox="0 0 1024 1024" version="1.1" xmlns="http://www.w3.org/2000/svg" p-id="1089" xmlns:xlink="http://www.w3.org/1999/xlink" width="200" height="200"><defs><style type="text/css"></style></defs><path d="M723.2 502.698667a21.205333 21.205333 0 0 0-12.629333-11.008C705.066667 489.898667 575.104 448 512 448a21.376 21.376 0 0 0-21.205333 18.816l-42.666667 362.666667a21.333333 21.333333 0 0 0 16.981333 23.424l106.666667 21.333333a21.333333 21.333333 0 0 0 24.192-13.397333l128-341.333334a21.333333 21.333333 0 0 0-0.768-16.810666zM683.264 266.794667l-87.893333-190.421334a21.290667 21.290667 0 0 0-24.533334-11.733333l-85.333333 21.333333a21.333333 21.333333 0 0 0-16.042667 22.826667l13.738667 137.6a21.290667 21.290667 0 0 0 17.664 18.901333c56.789333 9.6 110.037333 20.096 158.208 31.232a21.290667 21.290667 0 0 0 24.192-29.738666zM490.666667 960H21.333333a21.333333 21.333333 0 0 1 0-42.666667h469.333334a21.333333 21.333333 0 0 1 0 42.666667z" p-id="1090" fill="#1296db"></path><path d="M982.314667 494.677333c-21.930667 13.909333-71.850667 38.656-150.314667 38.656a21.333333 21.333333 0 0 1 0-42.666666c58.410667 0 97.664-15.658667 118.314667-26.752-87.338667-71.893333-228.053333-109.397333-283.989334-121.984-152.661333-36.693333-328.704-57.941333-375.125333-63.189334L211.072 118.442667a21.290667 21.290667 0 0 0-24.234667-11.136l-85.333333 21.333333A21.333333 21.333333 0 0 0 85.333333 149.333333v121.6c-20.48-3.797333-47.061333-4.992-65.450666 7.893334C10.794667 285.226667 0 297.514667 0 320c0 9.685333 0 38.016 75.562667 89.770667l-31.829334 95.445333a21.461333 21.461333 0 0 0 20.266667 28.117333H170.666667a21.333333 21.333333 0 0 0 19.072-11.776l19.285333-38.570666a1429.632 1429.632 0 0 0 276.949333 92.501333 21.162667 21.162667 0 0 0 25.472-16.128v-0.085333l153.386667 33.664-0.085333 0.213333a21.333333 21.333333 0 0 0 16.554666 25.216l5.205334 1.024 37.461333-99.882667a21.418667 21.418667 0 0 0-13.397333-27.776c-6.613333-2.133333-37.973333-12.202667-75.989334-22.144a21.333333 21.333333 0 1 1 10.794667-41.258666c39.168 10.282667 71.509333 20.608 78.293333 22.826666 16.554667 5.333333 30.336 17.408 37.930667 33.066667 7.552 15.658667 8.405333 33.962667 2.304 50.261333l-35.029333 93.397334c88.234667 17.066667 152.192 25.514667 197.376 25.514666 39.296 0 64.64-6.314667 80-18.816 11.605333-9.472 17.749333-22.357333 17.749333-37.248 0-39.253333-16.256-73.258667-41.685333-102.656z" p-id="1091" fill="#1296db"></path></svg>