<?xml version="1.0" standalone="no"?><!DOCTYPE svg PUBLIC "-//W3C//DTD SVG 1.1//EN" "http://www.w3.org/Graphics/SVG/1.1/DTD/svg11.dtd"><svg t="1553738055023" class="icon" style="" viewBox="0 0 1024 1024" version="1.1" xmlns="http://www.w3.org/2000/svg" p-id="2746" xmlns:xlink="http://www.w3.org/1999/xlink" width="200" height="200"><defs><style type="text/css"></style></defs><path d="M512 0a512 512 0 1 0 0 1024A512 512 0 0 0 512 0z m0 992a480 480 0 1 1 0-960 480 480 0 0 1 0 960z" fill="" p-id="2747"></path><path d="M505.408 529.472c96.768 0 175.488-77.184 175.488-172.032 0-94.848-78.72-172.032-175.488-172.032S329.92 262.656 329.92 357.504s78.784 171.968 175.488 171.968z m-67.264 31.552c-122.176 0-213.44 82.368-213.44 202.048v12.864c0 62.592 97.792 62.592 221.568 62.592h131.52c118.848 0 221.568 0 221.568-62.592v-12.864c0-119.616-91.264-202.048-213.44-202.048H438.144z" fill="" p-id="2748"></path></svg>