<?xml version="1.0" standalone="no"?><!DOCTYPE svg PUBLIC "-//W3C//DTD SVG 1.1//EN" "http://www.w3.org/Graphics/SVG/1.1/DTD/svg11.dtd"><svg t="1553739619814" class="icon" style="" viewBox="0 0 1024 1024" version="1.1" xmlns="http://www.w3.org/2000/svg" p-id="2871" xmlns:xlink="http://www.w3.org/1999/xlink" width="200" height="200"><defs><style type="text/css"></style></defs><path d="M511.69318 596.907142c117.300781 0 225.562682-109.796805 237.671369-270.41599C761.984872 158.504428 657.850157 0 511.69318 0S261.299161 158.504428 274.021811 326.55937c12.108688 160.619185 120.370589 270.41599 237.671369 270.41599z m-2.114757 86.705026c-262.639142 0-475.342739 111.877453-475.342738 249.916493 0 47.172719 40.487359 65.386914 159.527697 79.166941A2942.308792 2942.308792 0 0 0 511.69318 1023.269386a2862.868978 2862.868978 0 0 0 319.567029-10.642002c117.266672-15.076169 157.890466-31.994223 157.890466-79.166941 0-138.03904-217.069546-249.916493-479.572252-249.916493z m0 0" fill="#999999" p-id="2872"></path></svg>