<?xml version="1.0" standalone="no"?><!DOCTYPE svg PUBLIC "-//W3C//DTD SVG 1.1//EN" "http://www.w3.org/Graphics/SVG/1.1/DTD/svg11.dtd"><svg t="1553737886855" class="icon" style="" viewBox="0 0 1024 1024" version="1.1" xmlns="http://www.w3.org/2000/svg" p-id="2005" xmlns:xlink="http://www.w3.org/1999/xlink" width="200" height="200"><defs><style type="text/css"></style></defs><path d="M512 947C272.1 947 77 751.9 77 512S272.1 77 512 77s435 195.1 435 435-195.1 435-435 435z m0-841.9c-224.4 0-406.9 182.5-406.9 406.9S287.6 918.9 512 918.9 918.9 736.4 918.9 512 736.4 105.1 512 105.1z" p-id="2006"></path><path d="M567 473.4c-1.5 5.9-3 11.3-4.4 16.1-1.5 4.1-3.3 8.2-5.6 12.5-2.2 4.3-4.6 7.5-7.2 9.7-3.3 2.6-5.7 5.4-7 8.3-1.3 3-2.4 6-3.3 9.2-0.9 3.2-1.9 6.4-3.1 9.7-1.1 3.3-3 6.7-5.6 10-8.5 11.1-14.9 21.9-19.2 32.3-4.3 10.4-7.2 20.4-8.9 30-1.7 9.6-2.1 19.2-1.4 28.6 0.7 9.5 2.2 18.6 4.4 27.5 1.5 6.7 3.7 13.6 6.7 20.9 3 7.2 7.3 14.6 13.1 22.2 5.7 7.6 13.1 15 22 22.2 8.9 7.2 20 14.2 33.4 20.9-8.9 1.9-19.3 3.5-31.1 5-10 1.1-22.3 2.1-37 3.1-14.6 0.9-31.4 1.4-50.3 1.4-9.6 0-20.9-0.4-33.6-1.1-12.8-0.7-25.9-1.7-39.5-2.8-13.5-1.1-26.9-2.4-40-3.9-13.2-1.5-25.2-3.1-36.1-4.7-10.9-1.7-20.2-3.4-27.8-5.3-7.6-1.9-12.3-3.5-14.2-5-3.3-3-5.9-11.2-7.8-24.7-1.9-13.5-1.3-31.2 1.7-53.1 1.9-12.2 6.8-21.6 14.7-28.1 8-6.5 17.3-11.6 28.1-15.3 10.7-3.7 22-7.1 33.6-10.3 11.7-3.2 22-7.5 30.9-13.1 7-4.4 12.4-8.6 16.1-12.5 3.7-3.9 6.3-7.9 7.8-12s2.2-8.3 2.2-12.8c0-4.4-0.2-9.3-0.6-14.5-0.7-7.8-3.4-13.9-8.1-18.4-4.6-4.4-9.5-8.9-14.7-13.3-3-2.2-5.6-5.6-7.8-10s-4.1-8.7-5.6-12.8c-1.9-4.8-3.3-10.2-4.4-16.1-2.6-0.7-5-1.9-7.2-3.3-1.9-1.5-3.9-3.7-6.1-6.7-2.2-3-4.3-7.4-6.1-13.3-1.9-5.6-2.5-10.7-1.9-15.6 0.6-4.8 1.6-8.9 3.1-12.2 1.5-4.1 3.5-7.6 6.1-10.6 0-12.6 0.7-25.2 2.2-37.8 1.5-10.7 3.8-22.2 7-34.5 3.1-12.2 8.2-23.2 15.3-32.8 6.7-9.3 13.8-16.9 21.4-22.8 7.6-5.9 15.5-10.6 23.6-13.9 8.2-3.3 16.3-5.7 24.5-7 8.2-1.3 15.9-1.9 23.4-1.9 9.6 0 18.9 1.1 27.8 3.3s17.1 5.2 24.7 8.9c7.6 3.7 14.4 7.9 20.3 12.5s10.8 9.4 14.5 14.2c8.5 10.7 14.7 22.6 18.6 35.6 3.9 13 6.8 25.2 8.6 36.7 1.9 13.3 2.6 26.7 2.2 40 2.2 1.9 4.1 4.1 5.6 6.7 1.5 2.2 2.6 5.2 3.3 8.9 0.7 3.7 0.7 8.3 0 13.9-0.7 7-2.2 12.6-4.4 16.7s-4.6 7.2-7.2 9.5c-3.2 2.7-6.3 4.5-9.7 5.7" p-id="2007"></path><path d="M647.9 516.7c-62.8 0-113.7 50.9-113.7 113.7 0 62.8 50.9 113.7 113.7 113.7 62.8 0 113.7-50.9 113.7-113.7 0.1-62.8-50.8-113.7-113.7-113.7zM701 638h-45.5v45.5c0 4.2-3.4 7.6-7.6 7.6-4.2 0-7.6-3.4-7.6-7.6V638h-45.5c-4.2 0-7.6-3.4-7.6-7.6 0-4.2 3.4-7.6 7.6-7.6h45.5v-45.5c0-4.2 3.4-7.6 7.6-7.6 4.2 0 7.6 3.4 7.6 7.6v45.5H701c4.2 0 7.6 3.4 7.6 7.6 0 4.2-3.4 7.6-7.6 7.6z" p-id="2008"></path></svg>