<?xml version="1.0" standalone="no"?><!DOCTYPE svg PUBLIC "-//W3C//DTD SVG 1.1//EN" "http://www.w3.org/Graphics/SVG/1.1/DTD/svg11.dtd"><svg t="1553758766315" class="icon" style="" viewBox="0 0 1024 1024" version="1.1" xmlns="http://www.w3.org/2000/svg" p-id="1649" xmlns:xlink="http://www.w3.org/1999/xlink" width="200" height="200"><defs><style type="text/css"></style></defs><path d="M190.138182 486.632727c-0.651636 5.469091-1.629091 10.077091-1.675637 14.685091-0.139636 11.613091 4.701091 20.503273 15.383273 25.716364 5.143273 2.490182 10.752 4.235636 15.453091 7.377454 2.722909 1.838545 4.724364 5.562182 5.678546 8.843637 0.442182 1.489455-2.024727 5.12-3.886546 5.771636-3.490909 1.210182-6.749091-0.232727-7.563636-4.561454-0.465455-2.443636-0.744727-4.957091-1.163637-7.749819h-24.669091c-4.096 15.127273 3.421091 28.253091 18.385455 30.440728 7.842909 1.163636 16.128 0.861091 24.040727-0.232728 10.053818-1.373091 18.199273-6.632727 20.549818-17.268363 2.792727-12.497455 1.163636-24.436364-9.658181-32.814546-4.747636-3.677091-10.821818-5.655273-16.244364-8.494545-3.188364-1.629091-7.005091-2.792727-9.192727-5.329455-1.675636-1.908364-1.861818-5.818182-1.326546-8.517818 0.232727-1.117091 4.631273-2.536727 6.353455-1.861818 1.954909 0.768 4.189091 3.723636 4.235636 5.771636 0.023273 5.259636 2.373818 6.586182 7.051637 6.306909 4.235636-0.232727 8.494545-0.186182 12.730181-0.046545 3.863273 0.116364 5.003636-1.629091 5.143273-5.376 0.535273-14.824727-5.236364-22.016-20.014545-24.226909-3.304727-0.488727-6.632727-0.791273-11.869091-1.396364 9.937455-3.956364 18.269091-7.447273 26.647272-10.658909a1231.546182 1231.546182 0 0 1 215.528728-60.811636 2178.071273 2178.071273 0 0 1 135.540363-21.364364c63.464727-7.819636 127.301818-10.705455 191.255273-6.609454 37.259636 2.373818 74.472727 6.330182 109.847273 19.176727a161.629091 161.629091 0 0 1 38.725818 19.968c20.666182 14.848 24.343273 36.072727 10.612364 57.6-6.4 10.053818-14.661818 19.269818-23.482182 27.368727-23.924364 22.016-52.317091 37.376-81.501091 51.944727V513.629091c-9.053091 0-17.524364-0.162909-25.972364 0.162909-1.349818 0.069818-3.84 2.443636-3.723636 3.514182 0.418909 3.584-2.816 8.238545 2.490182 10.612363 0.907636 0.395636 1.978182 0.395636 3.490909 0.651637v12.241454c0 4.002909-1.745455 6.702545-5.934546 6.679273-4.189091 0-5.957818-2.839273-6.050909-6.725818-0.116364-4.887273-0.069818-9.774545-0.069818-14.661818 0-9.541818-0.139636-19.083636 0-28.625455 0.069818-3.677091 0.558545-7.493818 5.492364-7.912727 3.677091-0.302545 6.283636 1.024 6.516363 5.12 0.116364 2.327273 0 4.631273 0 7.889454 7.400727 0 14.359273 0.256 21.248-0.279272 1.210182-0.093091 3.095273-3.607273 3.048728-5.492364-0.395636-15.313455-9.984-25.088-25.483637-26.437818-21.527273-1.885091-33.978182 7.656727-35.653818 29.207273-1.163636 14.708364-0.698182 29.649455 0.209455 44.427636 0.768 12.567273 7.377455 18.688 19.944727 21.178182 0.977455 0.186182 1.954909 0.558545 4.654545 1.326545-5.818182 2.420364-10.193455 4.258909-14.592 6.027637-78.173091 31.232-159.022545 53.178182-241.687272 68.305454-40.820364 7.470545-81.92 13.847273-123.112728 18.734546-60.741818 7.191273-121.809455 10.286545-182.993454 6.656-39.796364-2.373818-79.569455-6.283636-117.364364-20.130909a154.437818 154.437818 0 0 1-35.514182-18.036364c-22.574545-15.895273-26.018909-37.748364-11.240727-61.114182 9.332364-14.754909 22.178909-26.135273 35.956364-36.561454 22.248727-16.872727 46.592-30.208 71.656727-42.356364 1.117091-0.512 2.327273-0.861091 3.770182-1.396364z m250.577454 21.992728l1.070546 0.395636c0 12.520727-0.232727 25.041455 0.046545 37.538909 0.488727 22.574545-4.189091 17.687273 19.456 18.385455 4.026182 0.116364 5.026909-1.698909 4.957091-5.352728a10980.305455 10980.305455 0 0 1-1.629091-78.266182c-0.046545-4.096-1.675636-5.585455-5.725091-5.515636-9.541818 0.162909-19.083636 0.232727-28.625454-0.023273-4.514909-0.116364-6.167273 1.512727-6.912 6.050909-2.001455 12.450909-4.677818 24.832-7.447273 39.098182l-7.144727-44.357818h-41.192727v73.192727c-0.023273 15.220364-0.069818 14.941091 15.266909 15.290182 6.074182 0.139636 8.145455-1.698909 8.029091-7.842909-0.325818-16.802909-0.116364-33.629091-0.116364-50.455273 4.445091 14.149818 7.447273 28.392727 10.589091 42.635637 3.444364 15.569455 3.537455 15.173818 19.502545 15.709091 6.562909 0.209455 8.704-2.234182 9.821091-8.192 3.048727-16.151273 6.656-32.209455 10.053818-48.290909z m286.487273 14.08l-1.163636 0.325818c-0.837818-1.885091-1.722182-3.746909-2.56-5.655273-5.329455-12.450909-10.589091-24.925091-16.034909-37.352727-0.768-1.768727-2.373818-4.445091-3.653819-4.491637-9.216-0.395636-18.455273-0.232727-27.578181-0.232727v88.296727h23.04v-47.569454c1.908364 1.442909 2.792727 3.048727 3.514181 4.701091 5.934545 12.893091 11.799273 25.832727 17.82691 38.656 0.814545 1.745455 2.490182 4.258909 3.863272 4.328727 8.564364 0.395636 17.175273 0.186182 25.832728 0.186182v-88.110546h-23.086546v46.917819z m-120.436364-47.499637c-6.609455 0-12.520727 0.372364-18.362181-0.116363-5.957818-0.465455-8.098909 1.303273-7.959273 7.633454 0.418909 18.036364 0.116364 36.072727 0.162909 54.132364 0.046545 18.781091 9.076364 28.974545 27.694545 30.487272 19.735273 1.629091 38.632727-5.515636 37.608728-33.698909-0.605091-16.965818-0.093091-33.978182-0.116364-50.944 0-2.257455-0.209455-4.538182-0.325818-6.888727h-25.437091v8.145455l-0.046545 56.669091c0 3.909818-0.395636 7.121455-5.469091 7.563636-5.236364 0.465455-7.493818-1.745455-7.517091-6.795636l-0.232728-40.727273v-25.460364z m-77.032727 27.950546c6.912 0 13.265455 0.232727 19.595637-0.162909 1.442909-0.093091 3.863273-2.141091 4.002909-3.467637 1.163636-11.892364-2.117818-23.133091-16.244364-25.134545a98.862545 98.862545 0 0 0-27.741091 0.325818 21.736727 21.736727 0 0 0-12.893091 8.122182c-9.146182 12.474182-4.328727 33.582545 8.936727 41.425454 5.073455 3.025455 10.845091 4.817455 16.011637 7.703273 2.839273 1.582545 5.981091 3.816727 7.330909 6.562909 1.629091 3.374545 1.582545 7.959273-3.374546 9.262546-3.863273 1.000727-8.145455-0.395636-7.889454-4.910546 0.465455-7.982545-3.793455-8.378182-9.728-7.936-4.421818 0.325818-8.936727-0.232727-13.358546 0.232727-1.489455 0.162909-3.723636 2.024727-4.026181 3.444364-2.327273 11.240727 4.770909 23.226182 16.058181 26.298182 11.240727 3.072 22.690909 2.746182 33.792-1.093818 8.843636-3.072 13.730909-9.681455 15.057455-18.850909 2.397091-16.523636-4.328727-28.439273-19.735273-35.211637-3.490909-1.536-7.121455-2.746182-10.565818-4.352-2.094545-0.977455-4.747636-1.978182-5.725091-3.746909a12.311273 12.311273 0 0 1-1.419636-8.192c0.325818-1.28 4.421818-2.792727 6.237091-2.234182 2.048 0.628364 3.816727 3.234909 4.980363 5.376 0.837818 1.512727 0.465455 3.700364 0.698182 6.539637z m-187.508363 61.463272c0.186182-1.024 0.465455-1.675636 0.372363-2.257454-4.654545-27.508364-9.285818-55.04-14.219636-82.525091-0.232727-1.326545-3.211636-3.072-4.957091-3.118546-9.728-0.302545-19.502545 0.116364-29.253818-0.256-4.747636-0.209455-6.120727 1.815273-6.795637 6.027637-2.746182 16.686545-5.748364 33.349818-8.610909 50.036363-1.792 10.519273-3.490909 21.108364-5.352727 32.465455 7.959273 0 15.127273 0.232727 22.272-0.186182 1.256727-0.069818 3.141818-2.56 3.444364-4.189091 1.210182-6.423273 1.885091-12.962909 2.816-19.456l5.445818-37.236363h1.163636l9.448727 60.695272h24.203637z" fill="#333C4F" p-id="1650"></path></svg>