<?xml version="1.0" standalone="no"?><!DOCTYPE svg PUBLIC "-//W3C//DTD SVG 1.1//EN" "http://www.w3.org/Graphics/SVG/1.1/DTD/svg11.dtd"><svg t="1553829529222" class="icon" style="" viewBox="0 0 1560 1024" version="1.1" xmlns="http://www.w3.org/2000/svg" p-id="2047" xmlns:xlink="http://www.w3.org/1999/xlink" width="304.6875" height="200"><defs><style type="text/css"></style></defs><path d="M0 885.028571C0 960.609524 63.390476 1024 141.409524 1024h1277.561905c78.019048 0 141.409524-60.952381 141.409523-138.971429V512H0v373.028571z" fill="#002395" p-id="2048"></path><path d="M1416.533333 0H141.409524C63.390476 0 0 63.390476 0 138.971429V512h1560.380952V138.971429C1560.380952 63.390476 1496.990476 0 1416.533333 0z" fill="#DE3831" p-id="2049"></path><path d="M387.657143 0H148.72381L7.314286 216.990476 455.92381 512 7.314286 807.009524 148.72381 1024h238.933333l482.742857-316.952381H1560.380952V316.952381H870.4z" fill="#FFFFFF" p-id="2050"></path><path d="M177.980952 0H141.409524C63.390476 0 0 63.390476 0 138.971429v746.057142C0 960.609524 63.390476 1024 141.409524 1024h36.571428l780.190477-512-780.190477-512z" fill="#FFB612" p-id="2051"></path><path d="M0 124.342857L590.019048 512 0 899.657143" fill="" p-id="2052"></path><path d="M241.371429 0H141.409524C82.895238 0 34.133333 34.133333 12.190476 82.895238L665.6 512 12.190476 941.104762c21.942857 48.761905 70.704762 82.895238 129.219048 82.895238h99.961905l629.028571-412.038095V609.52381H1560.380952v-195.04762H872.838095L241.371429 0z" fill="#007A4D" p-id="2053"></path></svg>