<?xml version="1.0" standalone="no"?><!DOCTYPE svg PUBLIC "-//W3C//DTD SVG 1.1//EN" "http://www.w3.org/Graphics/SVG/1.1/DTD/svg11.dtd"><svg class="icon" height="512" viewBox="0 0 1024 1024" version="1.1" xmlns="http://www.w3.org/2000/svg"><path d="M789.928 94.457c-76.4 0-138.799 62.616-138.799 139.121 0 76.455 62.453 139.07 138.799 139.07 76.234 0 138.742-62.615 138.742-139.07 0-76.505-62.508-139.121-138.742-139.121m-557.04 0c-76.4 0-138.799 62.616-138.799 139.121 0 76.455 62.508 139.07 138.799 139.07 76.29 0 138.797-62.615 138.797-139.07 0-76.505-61.64-139.121-138.797-139.121m556.061 347.809c-76.398 0-138.797 62.561-138.797 139.072v55.617l-139.72 80.901-137.88-79.979v-53.016c0-67.771-46.824-127.781-112.751-139.99-87.687-16.494-164.898 51.331-164.898 136.467v313.028c0 19.102 15.683 34.78 34.78 34.78h208.144c19.103 0 34.726-15.679 34.726-34.78V717.91l119.7 69.617c0.872 0 0.872 0.812 1.794 0.812 5.21 3.476 11.285 4.397 17.309 4.397 6.077 0 11.286-1.734 17.362-4.397l121.436-71.24v177.377c0 19.098 15.627 34.78 34.727 34.78h208.252c19.043 0 34.727-15.683 34.727-34.78V581.447c-0.003-76.621-62.51-139.181-138.911-139.181" /></svg>